<?xml version="1.0" standalone="no"?><!DOCTYPE svg PUBLIC "-//W3C//DTD SVG 1.1//EN" "http://www.w3.org/Graphics/SVG/1.1/DTD/svg11.dtd"><svg class="icon" width="200px" height="200.00px" viewBox="0 0 1024 1024" version="1.1" xmlns="http://www.w3.org/2000/svg"><path d="M762.742 495.973a227.931 227.931 0 0 1-15.348-2.63 226.04 226.04 0 0 1-7.486-1.688 229.077 229.077 0 0 1-13.632-3.758 244.654 244.654 0 0 1-8.202-2.731c-3.436-1.21-6.811-2.54-10.173-3.912a220.268 220.268 0 0 1-11.141-4.883c-3.639-1.717-7.238-3.482-10.768-5.384-2.655-1.433-5.258-2.94-7.858-4.476-2.976-1.758-5.882-3.605-8.773-5.501-2.283-1.494-4.595-2.927-6.823-4.504-4.496-3.174-8.843-6.545-13.104-10.054-2.102-1.721-4.111-3.535-6.144-5.334-2.714-2.4-5.37-4.877-7.984-7.417-1.938-1.89-3.89-3.758-5.772-5.715-3.791-3.972-7.461-8.061-10.956-12.317-1.868-2.257-3.6-4.621-5.383-6.953-1.898-2.506-3.781-5.032-5.593-7.619a228.044 228.044 0 0 1-5.593-8.357c-1.369-2.165-2.656-4.401-3.958-6.622a222.17 222.17 0 0 1-9.326-17.594c-0.861-1.787-1.744-3.551-2.549-5.349-1.577-3.57-3.042-7.203-4.44-10.871-0.762-1.972-1.451-3.957-2.145-5.944a225.458 225.458 0 0 1-5.826-19.416c-0.538-2.097-1.132-4.186-1.604-6.295-0.776-3.507-1.414-7.057-2.035-10.622a267.256 267.256 0 0 1-1.287-8.599c-0.54-4.047-1.025-8.102-1.343-12.213-0.36-4.635-0.61-9.285-0.692-13.934-0.014-1.335-0.194-2.642-0.194-3.986 0-2.816 0.194-5.618 0.291-8.421 0.016-0.402 0.03-0.796 0.042-1.197a238.81 238.81 0 0 1 1.037-14.121c0.015-0.138 0.028-0.277 0.038-0.417 3.711-34.789 15.319-68.383 34.335-98.01a238.097 238.097 0 0 0-103.316 27.15 84.493 84.493 0 0 1-78.118 0 244.085 244.085 0 0 0-114.541-27.635c-129.583 0-199.397 117.17-199.397 226.936 0 150.174 111.703 286.4 331.995 404.953a46.954 46.954 0 0 0 44.146 0c158.284-85.146 260.824-179.484 305.636-282.398-6.687-0.141-13.287-0.688-19.848-1.399-2.07-0.224-4.118-0.478-6.168-0.763z m-166.904-41.265a24.682 24.682 0 0 1 0 25.602 24.551 24.551 0 0 1-4.289 5.278c-4.913 4.615-11.57 7.113-18.487 6.676h-87.695v87.694c0.446 6.942-2.076 13.618-6.739 18.532a24.44 24.44 0 0 1-5.314 4.342 24.71 24.71 0 0 1-25.585 0 24.677 24.677 0 0 1-11.86-22.679v-87.888h-87.888c-13.02-0.816-23.152-11.61-23.152-24.659 0-11.487 7.875-21.208 18.641-23.926a24.712 24.712 0 0 1 4.899-0.818h87.5v-87.789a24.683 24.683 0 0 1 11.86-22.681c5.965-3.626 13.077-4.47 19.593-2.589a24.654 24.654 0 0 1 6.284 2.685 24.685 24.685 0 0 1 11.861 22.681v87.693h87.695a24.7 24.7 0 0 1 22.676 11.846z" fill="#FF7E00" opacity=".4" /><path d="M325.215 467.524c0 13.034 10.141 23.83 23.151 24.659h87.695V442.861h-87.693a24.846 24.846 0 0 0-4.899 0.818c-10.56 2.851-18.254 12.489-18.254 23.845zM485.465 442.861v0.195h-0.1V492.183h87.795a24.768 24.768 0 0 0 18.389-6.594 24.587 24.587 0 0 0 4.289-5.278 24.682 24.682 0 0 0 0-25.602 24.702 24.702 0 0 0-22.677-11.846h-87.696v-0.002z" fill="#FFFFFF" opacity=".4" /><path d="M485.268 492.183h-49.207v87.775a24.685 24.685 0 0 0 11.86 22.684 24.711 24.711 0 0 0 25.586 0 24.626 24.626 0 0 0 5.121-4.151c4.663-4.913 7.185-11.592 6.739-18.532v-87.777h-0.098v0.001zM448.018 332.488a24.687 24.687 0 0 0-11.86 22.681v87.693h49.211v0.196h0.1v-87.889a24.683 24.683 0 0 0-11.861-22.681 24.592 24.592 0 0 0-6.283-2.685 24.684 24.684 0 0 0-19.307 2.685z" fill="#FFFFFF" opacity=".4" /><path d="M485.366 442.861h-49.305V492.183h49.305V443.056z" fill="#FFFFFF" opacity=".4" /><path d="M612.416 148.839h-9.767a226.76 226.76 0 0 0-34.625 98.299c-0.016 0.14-0.027 0.277-0.041 0.417-0.499 4.698-0.833 9.41-1.037 14.121l-0.042 1.197c-0.153 4.131-0.165 8.267-0.097 12.407 0.083 4.649 0.332 9.299 0.691 13.934 0.334 4.083 0.803 8.151 1.344 12.213 0.389 2.87 0.804 5.736 1.286 8.599 0.625 3.552 1.26 7.093 2.036 10.622 0.472 2.112 1.066 4.2 1.604 6.295 1.646 6.532 3.567 13.009 5.826 19.416 0.693 1.987 1.383 3.972 2.146 5.944 1.383 3.654 2.85 7.28 4.438 10.87 0.805 1.798 1.69 3.563 2.549 5.35 1.509 3.184 2.988 6.364 4.648 9.492 1.468 2.768 3.101 5.417 4.68 8.102 1.298 2.221 2.586 4.458 3.956 6.621 1.801 2.846 3.682 5.612 5.593 8.358 1.812 2.587 3.694 5.113 5.592 7.619 1.784 2.331 3.516 4.696 5.384 6.953 3.495 4.254 7.165 8.343 10.956 12.317 1.884 1.957 3.835 3.825 5.772 5.715a234.034 234.034 0 0 0 7.984 7.417c2.032 1.799 4.053 3.611 6.144 5.334 4.262 3.507 8.609 6.88 13.104 10.054 2.229 1.58 4.54 3.019 6.822 4.504 2.895 1.896 5.801 3.744 8.774 5.501 2.601 1.536 5.202 3.044 7.859 4.476 3.528 1.902 7.128 3.667 10.766 5.384a227.341 227.341 0 0 0 11.142 4.883c3.363 1.373 6.737 2.701 10.173 3.912 2.725 0.953 5.45 1.876 8.202 2.731a230.604 230.604 0 0 0 21.118 5.446 227.931 227.931 0 0 0 15.348 2.63c2.05 0.283 4.106 0.535 6.171 0.761 6.56 0.713 13.161 1.261 19.849 1.398a304.526 304.526 0 0 0 26.276-123.328c-0.002-111.121-75.78-225.964-202.624-225.964z" fill="#FD973F" opacity=".4" /><path d="M598.234 261.303a84.499 84.499 0 0 1-78.121 0 244.029 244.029 0 0 0-114.538-27.635c-129.582 0-199.397 117.169-199.397 226.934 0 150.174 111.703 286.4 331.996 404.938a46.879 46.879 0 0 0 44.145 0c158.284-85.133 260.826-179.468 305.635-282.385-123.438-2.547-222.176-103.371-222.147-226.839a225.769 225.769 0 0 1 35.745-122.164 238.117 238.117 0 0 0-103.318 27.151z m74.022 266.678a24.712 24.712 0 0 1 22.68 11.859 24.726 24.726 0 0 1 0 25.602 24.703 24.703 0 0 1-22.68 11.846h-87.888v87.885a24.691 24.691 0 0 1-11.86 22.684 24.714 24.714 0 0 1-25.585 0 24.682 24.682 0 0 1-11.863-22.684v-87.885h-87.888c-13.022-0.816-23.151-11.612-23.151-24.661 0-13.036 10.129-23.83 23.151-24.647h87.888v-87.887a24.681 24.681 0 0 1 11.863-22.682 24.652 24.652 0 0 1 25.585 0 24.69 24.69 0 0 1 11.86 22.682v87.887h87.888v0.001z" fill="#FF7E00" /><path d="M887.953 583.156a304.448 304.448 0 0 0 26.277-123.329c0-111.121-75.777-225.967-202.619-225.967h-9.772c-44.322 69.096-47.878 156.733-9.269 229.177 38.597 72.445 113.32 118.374 195.383 120.119z" fill="#FF7E00" /><path d="M887.953 583.156a304.448 304.448 0 0 0 26.277-123.329c0-111.121-75.777-225.967-202.619-225.967h-9.772c-44.322 69.096-47.878 156.733-9.269 229.177 38.597 72.445 113.32 118.374 195.383 120.119z" fill="#FD973F" /></svg>