<?xml version="1.0" standalone="no"?><!DOCTYPE svg PUBLIC "-//W3C//DTD SVG 1.1//EN" "http://www.w3.org/Graphics/SVG/1.1/DTD/svg11.dtd"><svg class="icon" width="200px" height="200.00px" viewBox="0 0 1024 1024" version="1.1" xmlns="http://www.w3.org/2000/svg"><path d="M459.637 439.633c-20.137 0.134-36.49 16.28-36.889 36.407-0.24 19.809 16.646 37.037 36.407 36.853 20.297-0.185 36.706-15.929 36.762-36.498 0.08-20.297-15.869-36.214-36.28-36.762z" fill="#1082FF" opacity=".4" /><path d="M491.148 600.64c0-12.712 1.269-25.126 3.6-37.177-14.409 6.726-28.731 13.594-43.124 20.333-19.734 9.261-39.531 18.328-59.205 27.66a315426.196 315426.196 0 0 0-80.113 38.349c-6.609 3.163-13.204 6.363-19.896 9.386a46.279 46.279 0 0 1-6.447 1.97c-8.646-0.291-13.645-9.693-9.989-17.226 7.807-16.012 15.26-32.196 22.909-48.271 12.809-26.935 25.784-53.742 38.499-80.751 14.015-29.75 27.816-59.667 42.043-89.359 2.08-4.337 4.277-8.66 6.247-13.058a20.046 20.046 0 0 1 10.455-10.311c31.065-14.607 62.131-29.454 93.225-44.095l102.328-48.208c11.324-5.29 22.673-10.69 33.891-16.246 5.55-2.746 10.708-2.698 15.452 1.321 3.738 3.227 3.911 9.663 1.087 15.508a55363.138 55363.138 0 0 0-44.926 94.377c-4.686 9.843-9.352 19.683-14.031 29.526 31.764-20.313 69.675-32.159 110.432-32.159 28.095 0 54.851 5.619 79.171 15.762-4.137-22.322-10.668-44.163-19.612-65.096A317.74 317.74 0 0 0 610.159 195.83a338.348 338.348 0 0 0-56.016-23.831 294.393 294.393 0 0 0-81.609-13.946c-5.657-0.176-11.316 0-16.952-0.082a34.86 34.86 0 0 0-7.504 0 270.2 270.2 0 0 0-51.407 5.896 314.075 314.075 0 0 0-91.417 33.489 321.193 321.193 0 0 0-62.625 45.326 317.487 317.487 0 0 0-50.587 60.23 313.686 313.686 0 0 0-38.337 83.104 320.957 320.957 0 0 0-12.865 97.05 309.385 309.385 0 0 0 9.131 69.592 318.309 318.309 0 0 0 130.53 187.103 273.789 273.789 0 0 0 29.105 17.964c20.922 10.627 42.438 19.798 65.141 25.966 17.615 4.766 35.473 8.93 53.584 10.182a357.364 357.364 0 0 0 64.792-0.65 330.015 330.015 0 0 0 45.339-8.091c16.268-4.219 32.166-9.732 47.575-16.409-56.986-35.107-94.889-97.24-94.889-168.083z" fill="#1082FF" opacity=".4" /><path d="M666.746 718.408a323.992 323.992 0 0 0 39.47-40.688 310.838 310.838 0 0 0 49.944-84.951 327.502 327.502 0 0 0 20.938-143.584h-0.125c-0.855-10.487-2.305-20.897-4.219-31.213-24.32-10.143-51.076-15.762-79.171-15.762-40.757 0-78.668 11.847-110.432 32.159-11.498 24.191-23.003 48.384-34.481 72.568-4.387 9.245-9.264 18.431-12.824 27.88-3.564 9.462-10.194 14.574-19.081 18.561-7.38 3.292-14.707 6.676-22.018 10.086-2.332 12.051-3.6 24.465-3.6 37.177 0 70.844 37.903 132.977 94.888 168.083 4.3-1.862 8.578-3.781 12.796-5.83a318.434 318.434 0 0 0 67.915-44.486z" fill="#459CFC" opacity=".4" /><path d="M556.438 504.167c-20.136 0.134-36.489 16.28-36.888 36.408-0.24 19.809 16.646 37.037 36.406 36.852 20.298-0.185 36.707-15.929 36.763-36.498 0.08-20.297-15.869-36.215-36.281-36.762z" fill="#1082FF" /><path d="M587.95 665.173c0-12.71 1.268-25.125 3.599-37.175-14.408 6.724-28.729 13.593-43.121 20.332-19.734 9.262-39.531 18.328-59.206 27.66a314014.752 314014.752 0 0 0-80.114 38.348c-6.609 3.164-13.203 6.365-19.895 9.387a46.116 46.116 0 0 1-6.448 1.97c-8.646-0.292-13.645-9.693-9.989-17.224 7.807-16.012 15.259-32.197 22.909-48.273 12.809-26.933 25.784-53.74 38.499-80.75 14.015-29.75 27.816-59.665 42.043-89.359 2.08-4.336 4.278-8.659 6.247-13.058a20.042 20.042 0 0 1 10.454-10.31c31.066-14.606 62.132-29.455 93.227-44.095l102.328-48.208c11.323-5.29 22.672-10.691 33.889-16.246 5.551-2.746 10.711-2.698 15.454 1.322 3.736 3.226 3.91 9.662 1.086 15.507a57742.318 57742.318 0 0 0-44.927 94.378c-4.684 9.844-9.352 19.683-14.029 29.526 31.762-20.313 69.674-32.159 110.43-32.159 28.096 0 54.854 5.619 79.172 15.762-4.137-22.321-10.666-44.163-19.611-65.096a317.742 317.742 0 0 0-142.986-157.045 338.29 338.29 0 0 0-56.015-23.831 294.481 294.481 0 0 0-81.61-13.947c-5.655-0.175-11.316 0-16.952-0.081a34.86 34.86 0 0 0-7.504 0 270.108 270.108 0 0 0-51.406 5.896 314.023 314.023 0 0 0-91.417 33.488 321.24 321.24 0 0 0-62.625 45.327 317.555 317.555 0 0 0-50.587 60.229 313.723 313.723 0 0 0-38.337 83.105 320.952 320.952 0 0 0-12.864 97.05 309.417 309.417 0 0 0 9.131 69.594 318.304 318.304 0 0 0 130.53 187.1 273.558 273.558 0 0 0 29.104 17.965c20.923 10.628 42.438 19.798 65.141 25.965 17.615 4.768 35.474 8.931 53.585 10.184a357.535 357.535 0 0 0 64.791-0.651 330.053 330.053 0 0 0 45.34-8.09c16.268-4.218 32.164-9.732 47.574-16.409-56.986-35.111-94.89-97.242-94.89-168.088z" fill="#1082FF" /><path d="M763.549 782.941a323.713 323.713 0 0 0 39.469-40.688 310.799 310.799 0 0 0 49.943-84.95 327.503 327.503 0 0 0 20.94-143.584h-0.127c-0.854-10.487-2.305-20.898-4.218-31.214-24.318-10.143-51.076-15.762-79.172-15.762-40.756 0-78.668 11.847-110.43 32.159-11.498 24.19-23.004 48.384-34.482 72.568-4.388 9.244-9.264 18.431-12.825 27.88-3.563 9.461-10.194 14.573-19.079 18.56-7.383 3.293-14.708 6.676-22.02 10.087-2.331 12.05-3.599 24.465-3.599 37.175 0 70.846 37.903 132.978 94.888 168.085 4.301-1.863 8.579-3.781 12.798-5.83a318.325 318.325 0 0 0 67.914-44.486z" fill="#459CFC" /></svg>