<?xml version="1.0" standalone="no"?><!DOCTYPE svg PUBLIC "-//W3C//DTD SVG 1.1//EN" "http://www.w3.org/Graphics/SVG/1.1/DTD/svg11.dtd"><svg class="icon" width="200px" height="200.00px" viewBox="0 0 1024 1024" version="1.1" xmlns="http://www.w3.org/2000/svg"><path d="M404.622 639.854a9.303 9.303 0 0 0 6.299-2.653c2.494-2.22 5.882-5.606 10.133-10.147l9.342-9.226a126.397 126.397 0 0 1 37.533-24.547 119.508 119.508 0 0 1 43.82-7.306c4.902-0.057 8.864-4.01 8.923-8.911a8.666 8.666 0 0 0-2.538-5.896 8.561 8.561 0 0 0-6.285-2.635 138.115 138.115 0 0 0-44.439 6.888 130.889 130.889 0 0 0-36.209 18.767c-11.905 9.082-22.918 19.261-32.863 30.446a9.124 9.124 0 0 0-2.637 6.282c0.057 4.903 4.02 8.879 8.921 8.938z" fill="#1082FF" opacity=".4" /><path d="M290.202 799.104H638.75c48.577 0 88.446-25.257 89.772-85.711V525.837l88.547-31.65a50.711 50.711 0 0 0 18.424-39.106 50.665 50.665 0 0 0-18.424-39.107l-92.309-75.975c0.217-2.406 0.217-4.8 0-7.208V227.294c-1.976-24.562-22.468-43.474-47.117-43.474-24.633 0-45.132 18.912-47.106 43.474v36.123L508.81 164.102c-24.851-22.602-62.804-22.602-87.653 0L283.225 275.417a234.619 234.619 0 0 1 51.618 147.047c0.012 72.191-32.959 139.262-87.632 183.426-0.822 0.665-1.64 1.333-2.471 1.987-0.824 0.648-1.656 1.289-2.491 1.926a227.825 227.825 0 0 1-4.634 3.466c-0.334 0.243-0.666 0.489-1 0.729a235.43 235.43 0 0 1-36.185 21.492v77.906c0 52.742 36.007 85.708 89.772 85.708z m78.311-161.5a46.278 46.278 0 0 1-2.234-6.169 84.604 84.604 0 0 1-1.21-14.513 79.279 79.279 0 0 1 6.082-30.427 83.294 83.294 0 0 1 16.633-25.773 121.37 121.37 0 0 1 23.843-19.375 131.258 131.258 0 0 1 27.588-13.595 91.732 91.732 0 0 1 20.282-3.546 397.775 397.775 0 0 1 25.066-1.225c8.316-0.13 16.634-0.403 24.952-0.803 7.695-0.35 15.35-1.458 22.816-3.346a35.702 35.702 0 0 0 15.825-7.913l4.168-4.166 4.15-3.95c2.78-2.639 4.022-3.59 3.762-2.84-0.272 0.737 1.412 0 5.059-2.234 3.661-2.231 5.695-2.438 6.097-0.604a12.246 12.246 0 0 1 10.136 6.384 46.646 46.646 0 0 1 6.602 15.623c1.483 6.155 2.592 11.936 3.344 17.344a99.35 99.35 0 0 1 1.123 13.39h-0.319a133.47 133.47 0 0 1-2.839 26.986 114.98 114.98 0 0 1-25.758 53.461 158.996 158.996 0 0 1-50.017 37.417 134.4 134.4 0 0 1-60.857 15.136 123.27 123.27 0 0 1-40.575-6.602c-1.428-0.477-5.506-2.435-12.266-5.88a40.917 40.917 0 0 0-13.407-5.176c-1.482 0-3.301 1.483-5.477 4.454a100.567 100.567 0 0 0-6.283 10.146 48.187 48.187 0 0 1-7.292 10.146 12.268 12.268 0 0 1-8.435 4.47 15.247 15.247 0 0 1-7.092-1.53 13.015 13.015 0 0 1-4.366-3.344 61.996 61.996 0 0 1-3.748-5.877l-0.822-1.533-0.404-2.232a6.698 6.698 0 0 1 0-1.313 8.435 8.435 0 0 1 0-1.932 16.709 16.709 0 0 1 4.366-10.145 50.095 50.095 0 0 1 9.542-9.123 102.745 102.745 0 0 0 9.528-7.816c2.912-2.696 4.367-4.94 4.367-6.7a35.642 35.642 0 0 0-1.93-5.275z" fill="#1082FF" opacity=".4" /><path d="M242.249 609.799c0.835-0.637 1.666-1.277 2.491-1.926 0.832-0.656 1.648-1.323 2.471-1.987 54.672-44.164 87.644-111.233 87.632-183.426a234.625 234.625 0 0 0-51.645-147.082l-165.95 133.705a50.708 50.708 0 0 0-18.352 39.032 50.741 50.741 0 0 0 18.352 39.063l83.586 30.443v117.562a236.05 236.05 0 0 0 35.782-21.187c0.336-0.242 0.667-0.488 1-0.729a244.86 244.86 0 0 0 4.633-3.468z" fill="#C8E1FE" opacity=".4" /><path d="M499.481 711.003c2.493-2.222 5.88-5.61 10.131-10.149l9.342-9.225a126.327 126.327 0 0 1 37.536-24.547c14.009-5.161 28.886-7.624 43.82-7.306 4.898-0.059 8.863-4.008 8.921-8.91a8.649 8.649 0 0 0-2.533-5.894 8.575 8.575 0 0 0-6.289-2.639 138.068 138.068 0 0 0-44.439 6.888 130.723 130.723 0 0 0-36.206 18.767c-11.907 9.081-22.919 19.258-32.865 30.443a9.148 9.148 0 0 0-2.639 6.283c0.059 4.9 4.02 8.884 8.923 8.938a9.266 9.266 0 0 0 6.298-2.649z" fill="#1082FF" /><path d="M288.992 709.286v77.911c0 52.74 36.006 85.708 89.771 85.708h348.554c48.572 0 88.442-25.255 89.768-85.708V599.639l88.55-31.651a50.724 50.724 0 0 0 18.419-39.107 50.672 50.672 0 0 0-18.419-39.105l-92.312-75.975a39.803 39.803 0 0 0 0-7.208V301.095c-1.974-24.562-22.467-43.475-47.119-43.475-24.631 0-45.129 18.913-47.106 43.475v36.121L597.37 237.903c-24.85-22.602-62.801-22.602-87.654 0l-138.26 111.581c44.874 56.171 61.664 129.742 45.594 199.796a235.728 235.728 0 0 1-128.058 160.006zM431.2 750.469a16.705 16.705 0 0 1 4.37-10.148 50.19 50.19 0 0 1 9.541-9.125c3.33-2.405 6.517-5.03 9.529-7.811 2.912-2.698 4.368-4.946 4.368-6.705a36.174 36.174 0 0 0-1.932-5.275c-0.894-1.987-1.626-4.063-2.235-6.168a84.658 84.658 0 0 1-1.21-14.517 79.31 79.31 0 0 1 6.083-30.427 83.236 83.236 0 0 1 16.635-25.773 121.441 121.441 0 0 1 23.84-19.374 131.302 131.302 0 0 1 27.59-13.59 91.335 91.335 0 0 1 20.283-3.546 395.405 395.405 0 0 1 25.064-1.227 758.52 758.52 0 0 0 24.951-0.809 113.714 113.714 0 0 0 22.816-3.343 35.657 35.657 0 0 0 15.828-7.914l4.166-4.165 4.152-3.949c2.78-2.639 4.02-3.585 3.76-2.839-0.273 0.735 1.412 0 5.062-2.231 3.66-2.239 5.693-2.44 6.095-0.609a12.263 12.263 0 0 1 10.136 6.384 46.646 46.646 0 0 1 6.599 15.625c1.486 6.155 2.594 11.935 3.345 17.342a100.222 100.222 0 0 1 1.129 13.391h-0.321a133.625 133.625 0 0 1-2.839 26.983 114.957 114.957 0 0 1-25.76 53.461 158.948 158.948 0 0 1-50.016 37.42 134.381 134.381 0 0 1-60.857 15.137 123.392 123.392 0 0 1-40.579-6.601c-1.425-0.478-5.504-2.436-12.264-5.882a40.859 40.859 0 0 0-13.404-5.175c-1.486 0-3.301 1.483-5.477 4.454a100.511 100.511 0 0 0-6.286 10.145 48.16 48.16 0 0 1-7.295 10.15 12.25 12.25 0 0 1-8.432 4.465 15.256 15.256 0 0 1-7.092-1.526 13.164 13.164 0 0 1-4.367-3.343 62.505 62.505 0 0 1-3.748-5.883l-0.82-1.528-0.405-2.233a6.708 6.708 0 0 1 0-1.314 8.682 8.682 0 0 1-0.003-1.927z" fill="#1082FF" /><path d="M423.403 496.262a234.645 234.645 0 0 0-51.645-147.085L205.807 482.883a50.71 50.71 0 0 0-18.35 39.033 50.74 50.74 0 0 0 18.35 39.063l83.588 30.443v117.563c81.901-39.194 134.022-121.93 134.008-212.723z" fill="#1082FF" /><path d="M423.403 496.262a234.645 234.645 0 0 0-51.645-147.085L205.807 482.883a50.71 50.71 0 0 0-18.35 39.033 50.74 50.74 0 0 0 18.35 39.063l83.588 30.443v117.563c81.901-39.194 134.022-121.93 134.008-212.723z" fill="#459CFC" /></svg>