<?xml version="1.0" standalone="no"?><!DOCTYPE svg PUBLIC "-//W3C//DTD SVG 1.1//EN" "http://www.w3.org/Graphics/SVG/1.1/DTD/svg11.dtd"><svg class="icon" width="200px" height="200.00px" viewBox="0 0 1024 1024" version="1.1" xmlns="http://www.w3.org/2000/svg"><path d="M111.863 755.822v13.714c0 71.325 101.486 71.325 233.152 71.325h112.468l-10.969-57.605-63.1-128.919c-8.225-13.714-2.731-27.433 10.983-35.668l128.918-68.563 27.43-27.432c-21.952-8.239-43.892-10.972-68.577-10.972H345.013c-128.917 0-233.15 109.712-233.15 244.12z" fill="#F6E0FF" /><path d="M739.144 747.361l57.606-60.354c13.716-13.699 5.478-41.133-13.716-43.879l-79.547-10.984c-8.239 0-13.717-5.476-19.208-13.698l-35.657-76.802c-2.744-8.238-13.713-13.731-21.937-13.731-8.238 0-19.208 5.49-21.952 13.731l-35.654 76.802c-2.749 8.223-10.974 13.698-19.21 13.698l-79.534 10.984c-21.95 2.746-30.175 27.432-13.729 43.879l57.609 60.354c5.494 5.49 8.237 13.717 8.237 21.938l-13.715 85.039c-2.747 21.939 16.445 35.656 35.655 27.434l71.308-38.416c8.239-2.731 16.462-2.731 21.954 0l71.312 38.416c19.204 10.968 38.396-5.492 35.667-27.434l-13.716-85.039c-2.745-8.221 0.004-16.445 8.227-21.938z" fill="#D777FF" opacity=".4" /><path d="M578.179 292.269c0-106.979-79.548-192.019-178.303-192.019-98.742 0-178.289 85.039-178.289 192.019 0 106.979 79.547 192.004 178.289 192.004 98.755-0.002 178.303-85.025 178.303-192.004z" fill="#F6E0FF" /><path d="M670.886 354.07c0-106.98-79.548-192.019-178.305-192.019-98.74 0-178.287 85.039-178.287 192.019 0 106.979 79.547 192.005 178.287 192.005 98.757 0 178.305-85.025 178.305-192.005zM204.568 817.625v13.714c0 71.326 101.486 71.326 233.15 71.326h112.471l-10.971-57.606-63.099-128.92c-8.223-13.714-2.73-27.43 10.987-35.668l128.915-68.564 27.434-27.429c-21.952-8.238-43.893-10.973-68.577-10.973H437.722c-128.922 0-233.154 109.711-233.154 244.12z" fill="#E198FF" /><path d="M852.131 795.687l57.606-60.354c13.716-13.699 5.478-41.133-13.716-43.879l-79.547-10.984c-8.239 0-13.717-5.476-19.208-13.698l-35.657-76.802c-2.744-8.238-13.713-13.731-21.937-13.731-8.238 0-19.208 5.49-21.952 13.731l-35.654 76.802c-2.749 8.223-10.974 13.698-19.21 13.698l-79.534 10.984c-21.95 2.746-30.175 27.432-13.729 43.879l57.609 60.354c5.494 5.49 8.237 13.717 8.237 21.938l-13.715 85.039c-2.747 21.939 16.445 35.656 35.655 27.434l71.308-38.416c8.239-2.731 16.462-2.731 21.954 0l71.312 38.416c19.204 10.968 38.396-5.492 35.667-27.434l-13.716-85.039c-2.745-8.222 0.004-16.446 8.227-21.938z" fill="#D777FF" /></svg>