<?xml version="1.0" standalone="no"?><!DOCTYPE svg PUBLIC "-//W3C//DTD SVG 1.1//EN" "http://www.w3.org/Graphics/SVG/1.1/DTD/svg11.dtd"><svg class="icon" width="200px" height="200.00px" viewBox="0 0 1024 1024" version="1.1" xmlns="http://www.w3.org/2000/svg"><path d="M697.575 837.487c34.157 0 63.432-31.721 63.432-68.311V171.452c0-39.034-29.278-68.311-63.432-68.311H263.304c-34.156 0-63.431 29.276-63.431 68.311v595.281c0 39.036 29.274 68.316 63.431 70.755h434.271zM275.501 217.803c0-19.516 17.078-36.594 36.595-36.594H648.77c19.531 0 36.593 17.079 36.593 36.594v329.361c0 19.516-17.062 36.595-36.593 36.595v2.438H312.097c-19.516 0-36.595-17.075-36.595-36.595V217.803z" fill="#FFD4D5" /><path d="M756.356 910.965c34.154 0 63.43-31.723 63.43-68.308v-597.73c0-39.035-29.276-68.311-63.43-68.311H322.085c-34.157 0-63.431 29.275-63.431 68.311v595.282c0 39.035 29.276 68.315 63.431 70.756h434.271zM334.282 291.28c0-19.516 17.078-36.594 36.594-36.594h336.671c19.532 0 36.596 17.078 36.596 36.594v329.361c0 19.518-17.063 36.596-36.596 36.596v2.439H370.876c-19.516 0-36.594-17.079-36.594-36.596v-331.8z" fill="#FF6062" /><path d="M600.592 799.113c0-34.154-26.835-60.99-60.989-60.99-34.158 0-60.994 26.838-60.994 60.99 0 34.157 26.836 60.988 60.994 60.988 34.154 0.002 60.989-26.83 60.989-60.988zM600.592 372.177c14.637 0 24.399-9.759 24.399-24.396s-9.763-24.402-24.399-24.402H478.608c-14.636 0-24.396 9.765-24.396 24.402s9.76 24.396 24.396 24.396h121.984z" fill="#FFD3D4" /></svg>