<?xml version="1.0" standalone="no"?><!DOCTYPE svg PUBLIC "-//W3C//DTD SVG 1.1//EN" "http://www.w3.org/Graphics/SVG/1.1/DTD/svg11.dtd"><svg class="icon" width="200px" height="200.00px" viewBox="0 0 1024 1024" version="1.1" xmlns="http://www.w3.org/2000/svg"><path d="M668.035 341.939l-0.068 0.162c0.057 0.051 0.115 0.098 0.175 0.148l14.502-33.781a346.308 346.308 0 0 0 27.981-136.488c0-38.338-31.085-69.428-69.422-69.428H542.64c-16.658 0-30.163 13.501-30.163 30.146v25.808c0.182 19.28-14.556 35.428-33.78 36.987a35.452 35.452 0 0 1-29.029-8.884 35.401 35.401 0 0 1-11.483-28.104v-26.22c0-16.646-13.503-30.148-30.163-30.148h-93.887a74.083 74.083 0 0 0-52.47 21.767 74.104 74.104 0 0 0-21.634 52.531c0 43.941 8.001 87.532 23.632 128.606l15.181 39.961c110.385-99.035 277.253-100.346 389.191-3.063z" fill="#FF7E00" opacity=".4" /><path d="M668.142 342.25l-6.22 14.398c-10.37 16.278-21.663 21.677-37.825 16.278-7.489-2.574-13.531-8.162-16.646-15.428-3.118-7.279-3.033-15.531 0.264-22.705a276.004 276.004 0 0 0-73.986-24.973A325.096 325.096 0 0 0 381.8 323.584a186.84 186.84 0 0 0-50.229 22.566c-9.624 7.513-17.499 15.492-24.563 19.747-0.243 0.148-0.486 0.272-0.731 0.412-3.982 2.308-7.78 3.394-11.625 2.365a20.095 20.095 0 0 1-11.499-12.118l-4.354-11.413c-61.326 55.414-96.223 134.266-95.973 216.918-0.56 142.769 102.651 264.829 243.536 287.978 11.896-71.104 55.028-133.152 117.543-169.066 62.516-35.939 137.839-41.955 205.285-16.424a294.446 294.446 0 0 0 18.233-102.485c0.248-84.18-35.956-164.36-99.281-219.814zM474.447 675.637c-22.259-1.789-42.6-9.881-59.327-22.449-28.021-20.857-45.997-54.215-45.997-91.496 0-59.438 45.661-108.897 104.914-113.632 28.132-2.247 55.522 6.02 77.366 22.351a113.858 113.858 0 0 1 29.31 31.991c22.43 36.576 22.43 82.631 0 119.208-22.441 36.569-63.5 57.454-106.266 54.027z" fill="#FF7E00" opacity=".4" /><path d="M307.006 365.899c7.063-4.255 14.939-12.234 24.563-19.747 0.025-0.021 0.052-0.042 0.078-0.065a185.784 185.784 0 0 1 50.149-22.502 325.123 325.123 0 0 1 151.929-13.764 275.934 275.934 0 0 1 73.986 24.973 27.916 27.916 0 0 0-0.148 22.47 27.943 27.943 0 0 0 16.428 15.352c16.262 5.383 27.042 0 37.824-16.266l6.148-14.251 0.069-0.16c-111.939-97.282-278.808-95.97-389.193 3.064l-0.047 0.04 4.354 11.398a20.097 20.097 0 0 0 11.6 12.13c3.702 1.077 7.487 0.04 11.523-2.26 0.252-0.14 0.49-0.265 0.737-0.412zM415.024 564.442c0.006 0.225 0.013 0.45 0.027 0.672 1.643 31.38 27.608 56.328 59.398 56.328 32.75 0 59.31-26.479 59.478-59.191-0.168-32.711-26.729-59.162-59.477-59.162-29.74 0-54.379 21.81-58.784 50.316-0.028 0.185-0.051 0.376-0.078 0.567-0.109 0.771-0.214 1.55-0.296 2.335-0.03 0.309-0.053 0.622-0.078 0.937-0.06 0.678-0.119 1.354-0.156 2.035-0.02 0.367-0.028 0.737-0.038 1.108-0.022 0.622-0.045 1.239-0.046 1.865-0.001 0.734 0.02 1.463 0.05 2.19z" fill="#FF7E00" opacity=".4" /><path d="M580.712 502.397a113.857 113.857 0 0 0-29.311-31.99c-21.771-16.129-48.996-24.279-76.954-22.042-59.236 4.735-104.911 54.193-104.911 113.637 0 37.105 17.799 70.311 45.583 91.185 16.726 12.568 37.068 20.663 59.328 22.449 42.765 3.427 83.825-17.455 106.265-54.031 22.432-36.575 22.432-82.632 0-119.208z m-165.658 56.884c0.034-0.686 0.096-1.361 0.155-2.038 0.026-0.313 0.049-0.627 0.078-0.938 0.083-0.785 0.184-1.562 0.296-2.333 0.025-0.19 0.049-0.382 0.077-0.568 4.39-28.633 28.993-50.577 58.785-50.843v-0.088c32.851 0 59.485 26.616 59.485 59.473 0 0.104-0.008 0.202-0.008 0.307-0.169 32.712-26.732 59.19-59.477 59.19-31.792 0-57.754-24.947-59.4-56.327-0.015-0.221-0.018-0.447-0.026-0.672a66.179 66.179 0 0 1-0.056-2.191c0-0.104-0.008-0.202-0.008-0.307 0.005-0.523 0.035-1.041 0.056-1.559 0.017-0.37 0.023-0.739 0.043-1.106z" fill="#FFFFFF" opacity=".4" /><path d="M543.903 680.973c-62.516 35.912-105.648 97.963-117.543 169.066a296.66 296.66 0 0 0 48.926 4.06c122.019 0.53 231.401-75.149 273.905-189.549-67.448-25.531-142.771-19.516-205.288 16.423z" fill="#FD973F" opacity=".4" /><path d="M528.533 207.583c0-16.647-13.498-30.149-30.159-30.149H404.49a74.078 74.078 0 0 0-52.473 21.767 74.09 74.09 0 0 0-21.631 52.529c0 43.944 8.001 87.532 23.631 128.606l15.238 40.103c110.438-99.016 277.344-100.265 389.239-2.896l14.5-33.779a346.366 346.366 0 0 0 27.986-136.488c0-38.339-31.089-69.427-69.425-69.427h-98.564c-16.659 0-30.161 13.5-30.161 30.148v25.808c0.18 19.28-14.559 35.43-33.778 36.987a35.443 35.443 0 0 1-29.027-8.884 35.406 35.406 0 0 1-11.489-28.103l-0.003-26.222z" fill="#FF7E00" /><path d="M623.978 384.999a325.176 325.176 0 0 0-151.821 13.881 186.816 186.816 0 0 0-50.269 22.589c-15.527 11.616-25.999 25.411-36.882 22.5a20.074 20.074 0 0 1-11.495-12.118l-4.356-11.414c-61.325 55.415-96.223 134.27-95.973 216.919-0.557 142.768 102.65 264.825 243.532 287.976 11.899-71.105 55.031-133.148 117.545-169.062 62.517-35.944 137.846-41.96 205.283-16.424a294.395 294.395 0 0 0 18.236-102.489c0.248-84.179-35.959-164.357-99.282-219.814l-6.218 14.399c-10.371 16.278-21.663 21.677-37.826 16.278a27.992 27.992 0 0 1-16.649-15.428c-3.114-7.278-3.03-15.528 0.268-22.704a277.198 277.198 0 0 0-74.093-25.089z m46.678 311.595c-22.439 36.56-63.503 57.442-106.27 54.028-59.249-4.73-104.913-54.206-104.913-113.634 0-59.441 45.662-108.898 104.913-113.634 42.763-3.41 83.828 17.452 106.27 54.033 22.428 36.556 22.428 82.632 0 119.207z" fill="#FF7E00" /><path d="M634.277 756.267c-62.517 35.912-105.649 97.962-117.543 169.064a296.543 296.543 0 0 0 48.927 4.058c122.019 0.535 231.401-75.147 273.905-189.546-67.449-25.531-142.772-19.516-205.289 16.424z" fill="#FD973F" /><path d="M564.801 578.387c-32.852 0-59.485 26.616-59.485 59.472 0.281 32.736 26.75 59.208 59.485 59.497 32.856 0 59.492-26.645 59.492-59.497-0.004-32.856-26.638-59.472-59.492-59.472zM697.918 432.558a27.969 27.969 0 0 0 16.43 15.354c16.264 5.384 27.045 0 37.821-16.265l6.224-14.412c-111.959-97.297-278.858-95.974-389.242 3.102l4.356 11.398a20.094 20.094 0 0 0 11.6 12.133c10.369 3.012 21.353-10.37 36.897-22.489a185.87 185.87 0 0 1 50.149-22.5 325.097 325.097 0 0 1 151.925-13.765 275.853 275.853 0 0 1 73.989 24.97 27.946 27.946 0 0 0-0.149 22.474z" fill="#FF7E00" /></svg>