<?xml version="1.0" standalone="no"?><!DOCTYPE svg PUBLIC "-//W3C//DTD SVG 1.1//EN" "http://www.w3.org/Graphics/SVG/1.1/DTD/svg11.dtd"><svg class="icon" width="200px" height="200.00px" viewBox="0 0 1024 1024" version="1.1" xmlns="http://www.w3.org/2000/svg"><path d="M798.346 715.205c0-18.139-10.73-34.557-27.332-41.823 7.309-16.285 3.809-35.408-8.804-48.032l-3.688-3.788c-12.636-12.612-31.746-16.128-48.028-8.806-7.213-16.59-23.578-27.318-41.666-27.333-18.1 0.016-34.463 10.743-41.679 27.333-16.285-7.322-35.391-3.807-48.03 8.806l-3.672 3.686a43.007 43.007 0 0 0-8.808 48.029c-16.614 7.269-27.342 23.687-27.342 41.825 0 18.141 10.729 34.559 27.342 41.825-7.689 16.072-4.667 35.194 7.573 48.137l3.684 3.687c12.624 12.611 31.734 16.113 48.021 8.805 7.277 16.722 23.842 27.49 42.09 27.331 18.221 0.093 34.769-10.651 42.072-27.331 16.408 7.506 35.74 3.977 48.442-8.805l3.688-3.687c12.612-12.638 16.112-31.748 8.804-48.029 16.602-7.283 27.333-23.702 27.333-41.83z m-87.548 32.093a32.578 32.578 0 0 1-10.24 10.24 60.689 60.689 0 0 1-32.463 10.25c-39.303 0-68.702-43.614-42.686-85.202l0.201 0.516a32.905 32.905 0 0 1 10.236-10.235 60.7 60.7 0 0 1 32.569-10.239c38.906-0.107 68.704 43.72 42.383 84.67z" fill="#A87DFF" opacity=".4" /><path d="M279.01 688.631c12.322 7.03 18.048 21.722 13.727 35.219-19.36 25.809-29.386 71.68-33.696 96.461a15.112 15.112 0 0 0 3.355 12.307A15.122 15.122 0 0 0 274 837.925l282.905-0.72h1.948a2.445 2.445 0 0 0 2.188-1.563 2.406 2.406 0 0 0-0.558-2.621 33.711 33.711 0 0 1-2.663-2.258l-4.083-3.899a72.667 72.667 0 0 1-21.404-51.717v-4.402a75.836 75.836 0 0 1-23.696-55.085 75.883 75.883 0 0 1 23.696-55.086v-4.406a72.673 72.673 0 0 1 21.404-52.218l3.688-3.686a72.706 72.706 0 0 1 51.704-21.405h4.401a75.399 75.399 0 0 1 54.89-23.646 73.024 73.024 0 0 1 28.046 5.637c7.255 3.223 15.767 0.265 19.452-6.765a311.649 311.649 0 0 0 32.357-149.701c-3.939-105.251-60.379-201.525-150.287-256.397-89.919-54.862-201.352-61.013-296.763-16.38 33.271 67.724 32.435 147.224-2.229 214.243-34.677 67.019-99.071 113.633-173.569 125.606 16.519 91.556 72.757 171.081 153.583 217.175zM482.059 563c-30.114 16.866-66.913 16.506-96.683-0.956-12.776-7.492-23.273-17.771-31.275-29.666-0.034-0.053-0.071-0.103-0.105-0.159a96.91 96.91 0 0 1-11.186-22.555c-0.438-1.26-0.897-2.505-1.28-3.793-0.578-1.936-1.069-3.898-1.525-5.875a105.145 105.145 0 0 1-1.128-5.689c-0.285-1.684-0.589-3.367-0.781-5.08-0.411-3.525-0.669-7.091-0.697-10.728 0-0.131-0.025-0.264-0.025-0.397v-0.039-0.054c0-0.041 0.021-0.08 0.021-0.12 0-2.188 0.405-4.309 1.007-6.364 0.119-0.41 0.213-0.809 0.358-1.208a22.438 22.438 0 0 1 2.871-5.529c0.213-0.29 0.452-0.557 0.677-0.835 0.53-0.676 1.006-1.392 1.618-2.002 0.869-0.888 1.843-1.645 2.839-2.359 0.078-0.069 0.138-0.134 0.218-0.186 1.916-1.368 4.031-2.348 6.259-3.051 0.094-0.041 0.166-0.106 0.259-0.133 0.084-0.025 0.172-0.014 0.258-0.038 2.01-0.584 4.069-0.983 6.192-1.007 0.266 0.013 0.518 0.093 0.777 0.105 0.039 0 0.08 0.013 0.114 0.013 2.181 0.091 4.276 0.529 6.298 1.219 0.468 0.158 0.906 0.345 1.357 0.531a22.417 22.417 0 0 1 4.521 2.52c0.474 0.331 0.944 0.623 1.389 0.979 1.622 1.381 3.108 2.918 4.321 4.736 0.035 0.051 0.084 0.079 0.121 0.131a20.524 20.524 0 0 1 16.262-6.563c2.03 0.121 4.061 0.516 6.036 1.247a20.443 20.443 0 0 1 13.327 18.538c0.065 24 18.405 44 42.314 46.163 0.055-0.03 0.107-0.064 0.16-0.096h-0.184c18.153-8.564 29.745-26.827 29.796-46.891a22.64 22.64 0 0 1 12.056-20.088 22.617 22.617 0 0 1 23.351 1.325 21.194 21.194 0 0 1 5.45-0.81c5.691 0 10.833 2.336 14.548 6.076 3.725 3.713 6.036 8.846 6.036 14.519-0.126 39.836-27.284 74.515-65.942 84.169z" fill="#A87DFF" opacity=".4" /><path d="M521.988 459.167h0.014c-0.028-0.029-0.055-0.054-0.081-0.082-0.013 0.015-0.026 0.028-0.04 0.028 0.037 0.025 0.075 0.025 0.107 0.054z" fill="#A87DFF" opacity=".4" /><path d="M547.901 478.726c0-5.624-2.273-10.701-5.94-14.414-3.714-3.739-8.855-6.076-14.548-6.076a21.274 21.274 0 0 0-5.449 0.81c0.012 0 0.017 0.013 0.025 0.013-0.025 0.013-0.04 0.027-0.067 0.027 0.027 0.028 0.054 0.052 0.08 0.082a22.569 22.569 0 0 1 9.245 13.287c0.488 1.817 0.768 3.711 0.781 5.648-0.067 35.262-19.176 67.737-49.97 84.898 38.643-9.708 65.763-44.425 65.843-84.275zM378.944 465.413a22.519 22.519 0 0 1 3.792 12.491c0.053 28.658 23.261 51.864 51.916 51.917a51.19 51.19 0 0 0 22.211-5.014c-0.025 0-0.052-0.012-0.08-0.012-23.909-2.163-42.248-22.162-42.313-46.163a20.441 20.441 0 0 0-13.328-18.538 20.935 20.935 0 0 0-6.035-1.247 20.506 20.506 0 0 0-16.163 6.566z" fill="#A87DFF" opacity=".4" /><path d="M503.443 496.614a46.21 46.21 0 0 0 3.601-17.783 20.43 20.43 0 0 1 4.23-12.24c2.573-3.488 6.233-6.18 10.609-7.478 0.013 0 0.026-0.012 0.038-0.028 0.027 0 0.042-0.013 0.067-0.027-0.006 0-0.013-0.013-0.025-0.013-6.928-4.734-15.921-5.265-23.353-1.325a22.64 22.64 0 0 0-12.056 20.088c-0.051 20.064-11.642 38.327-29.796 46.891h3.991c19.137 0.002 35.559-11.56 42.694-28.085zM407.312 547.404c-9.151-7.134-16.531-15.993-22.088-25.833a66.486 66.486 0 0 1-1.299-2.333 80.248 80.248 0 0 1-2.246-4.616 88.096 88.096 0 0 1-2.029-4.84c-0.374-0.98-0.756-1.949-1.098-2.93-3.016-8.738-4.759-18.073-4.831-27.82a20.457 20.457 0 0 1 5.026-13.208l0.007 0.014c0.08-0.094 0.111-0.227 0.19-0.319-0.025-0.04-0.069-0.065-0.097-0.105-0.036-0.053-0.086-0.081-0.121-0.131-1.226-1.818-2.699-3.382-4.321-4.737-0.445-0.356-0.915-0.649-1.389-0.979a23.024 23.024 0 0 0-4.521-2.52c-0.451-0.186-0.889-0.373-1.357-0.531-2.029-0.677-4.136-1.143-6.298-1.219-0.034 0-0.075-0.014-0.114-0.014-2.306-0.08-4.653 0.239-6.969 0.903-0.087 0.025-0.174 0.014-0.258 0.038-0.093 0.028-0.167 0.095-0.259 0.133-2.274 0.703-4.382 1.724-6.259 3.05-0.08 0.053-0.138 0.119-0.218 0.186-1.705 1.232-3.171 2.731-4.457 4.36-0.229 0.278-0.464 0.545-0.677 0.836a22.637 22.637 0 0 0-2.871 5.528c-0.145 0.399-0.239 0.798-0.359 1.208-0.6 2.043-1.005 4.164-1.005 6.365 0 0.04-0.021 0.08-0.021 0.12v0.054c0.006 0.145 0.025 0.292 0.025 0.437 0.028 3.635 0.286 7.201 0.697 10.728 0.201 1.711 0.497 3.396 0.781 5.082 0.333 1.922 0.696 3.804 1.128 5.688 0.462 1.978 0.947 3.952 1.525 5.875 0.383 1.287 0.842 2.533 1.28 3.792 2.783 8.034 6.51 15.636 11.186 22.556 0.034 0.056 0.072 0.104 0.105 0.158 17.498 25.809 47.036 42.767 80.552 42.795a96.614 96.614 0 0 0 47.406-12.172 86.604 86.604 0 0 1-74.746-15.599z" fill="#FFFFFF" opacity=".4" /><path d="M532.028 478.102a22.383 22.383 0 0 0-0.781-5.648c-1.432-5.317-4.748-9.999-9.457-13.075a20.339 20.339 0 0 0-10.516 7.215 20.445 20.445 0 0 0-4.23 12.239 46.183 46.183 0 0 1-3.601 17.782c-6.994 16.762-23.497 28.552-42.784 28.589h-3.991c-16.074 7.69-34.971 6.554-50.022-2.968a51.781 51.781 0 0 1-24.119-43.921c0-4.443-1.312-8.78-3.773-12.478l-0.007-0.014a20.453 20.453 0 0 0-5.026 13.208c0.072 9.747 1.815 19.082 4.831 27.82 0.347 0.981 0.724 1.962 1.098 2.93a87.77 87.77 0 0 0 2.029 4.84c0.708 1.565 1.444 3.117 2.246 4.616 0.417 0.797 0.855 1.563 1.299 2.333 15.006 26.203 43.198 43.882 75.527 43.882a86.741 86.741 0 0 0 21.31-2.453c30.792-17.16 49.9-49.635 49.967-84.897z" fill="#FFFFFF" opacity=".4" /><path d="M298.993 345.852c34.665-67.02 35.5-146.519 2.228-214.242-110.344 51.716-180.823 162.592-180.823 284.459a315.404 315.404 0 0 0 5.026 55.392c74.499-11.977 138.895-58.588 173.569-125.609z" fill="#B997FC" opacity=".4" /><path d="M647.926 782.996c0 18.142 10.732 34.558 27.346 41.827-7.692 16.072-4.669 35.19 7.57 48.138l3.688 3.685c12.624 12.613 31.73 16.112 48.02 8.805 7.281 16.718 23.842 27.492 42.089 27.329 18.221 0.096 34.769-10.647 42.078-27.329 16.403 7.507 35.736 3.979 48.44-8.805l3.686-3.685a43.056 43.056 0 0 0 8.807-48.034 45.668 45.668 0 0 0 27.331-41.823c0-18.142-10.73-34.558-27.331-41.822 7.306-16.286 3.807-35.406-8.807-48.031l-3.686-3.794c-12.637-12.611-31.747-16.126-48.031-8.807-7.212-16.586-23.576-27.316-41.662-27.329-18.103 0.013-34.467 10.742-41.679 27.329-16.288-7.319-35.395-3.805-48.033 8.807l-3.674 3.688a43.009 43.009 0 0 0-8.805 48.03c-16.617 7.262-27.347 23.68-27.347 41.821z m86.118-32.517l0.198 0.521a32.93 32.93 0 0 1 10.237-10.242 60.687 60.687 0 0 1 32.573-10.235c38.905-0.106 68.701 43.719 42.381 84.671a32.574 32.574 0 0 1-10.241 10.241 60.72 60.72 0 0 1-32.464 10.244c-39.302 0.001-68.702-43.612-42.684-85.2z" fill="#A87DFF" /><path d="M234.054 539.356c16.524 91.55 72.765 171.077 153.588 217.17 12.32 7.031 18.046 21.722 13.725 35.223-19.361 25.805-29.384 71.674-33.694 96.458a15.107 15.107 0 0 0 3.354 12.309 15.117 15.117 0 0 0 11.604 5.303l282.908-0.716h1.949a2.466 2.466 0 0 0 2.189-1.563 2.42 2.42 0 0 0-0.557-2.625 33.203 33.203 0 0 1-2.668-2.254l-4.082-3.9a72.641 72.641 0 0 1-21.404-51.718v-4.403a75.831 75.831 0 0 1-23.698-55.086 75.889 75.889 0 0 1 23.698-55.087v-4.402a72.69 72.69 0 0 1 21.404-52.22l3.685-3.688a72.727 72.727 0 0 1 51.705-21.4h4.4a75.387 75.387 0 0 1 54.893-23.646 73.022 73.022 0 0 1 28.045 5.633c7.254 3.226 15.766 0.266 19.454-6.762a311.743 311.743 0 0 0 32.355-149.701c-3.938-105.25-60.378-201.524-150.285-256.397-89.924-54.861-201.354-61.013-296.766-16.379 33.27 67.724 32.435 147.223-2.225 214.242-34.68 67.02-99.075 113.632-173.577 125.609z m218.501-9.511c4.229-4.309 10-6.722 16.027-6.773a22.637 22.637 0 0 1 18.89 10.239 20.496 20.496 0 0 1 22.198-5.319 20.473 20.473 0 0 1 13.338 18.54c0.07 24.028 18.449 44.054 42.383 46.175a52.017 52.017 0 0 0 29.798-46.904 22.64 22.64 0 0 1 12.054-20.077 22.643 22.643 0 0 1 23.377 1.338 20.714 20.714 0 0 1 5.529-0.822c11.313 0 20.475 9.18 20.475 20.49-0.121 39.834-27.277 74.511-65.935 84.166-30.114 16.867-66.914 16.509-96.685-0.954a97.172 97.172 0 0 1-48.003-83.939 22.73 22.73 0 0 1 6.554-16.16z" fill="#A87DFF" /><path d="M590.692 630.894c38.646-9.705 65.761-44.422 65.841-84.272 0-11.31-9.177-20.488-20.487-20.488a21.112 21.112 0 0 0-5.527 0.824 22.643 22.643 0 0 1 10.037 18.749c0.064 35.325-19.018 67.95-49.864 85.187zM543.287 597.715a51.129 51.129 0 0 0 22.21-5.014c-23.948-2.12-42.328-22.145-42.394-46.173a20.452 20.452 0 0 0-13.328-18.541 20.496 20.496 0 0 0-22.2 5.321 22.501 22.501 0 0 1 3.793 12.489c0.055 28.659 23.261 51.865 51.919 51.918z" fill="#A87DFF" /><path d="M407.629 413.747c34.66-67.018 35.497-146.518 2.225-214.243-110.343 51.717-180.825 162.593-180.825 284.459a315.71 315.71 0 0 0 5.025 55.393c74.502-11.977 138.897-58.589 173.575-125.609z" fill="#B997FC" /></svg>